<?xml version="1.0" encoding="utf-8"?>
<!-- Generator: Adobe Illustrator 23.1.0, SVG Export Plug-In . SVG Version: 6.00 Build 0)  -->
<svg version="1.1" xmlns="http://www.w3.org/2000/svg" xmlns:xlink="http://www.w3.org/1999/xlink" x="0px" y="0px"
	 viewBox="0 0 141 104" style="enable-background:new 0 0 141 104;" xml:space="preserve">
<style type="text/css">
	.st0{fill:#F75A42;stroke:#000000;stroke-width:6;stroke-miterlimit:10;}
	.st1{stroke:#000000;stroke-width:3;stroke-miterlimit:10;}
	.st2{fill:#F75A42;stroke:#010000;stroke-width:4;stroke-miterlimit:10;}
	.st3{fill:#F75A42;}
	.st4{fill:#010000;}
	.st5{fill:#319475;}
	.st6{fill:none;stroke:#000000;stroke-width:6;stroke-miterlimit:10;}
</style>
<g id="Layer_1">
</g>
<g id="Layer_2">
	<g>
		<path class="st5" d="M8.09,12.45c10.55,0,10.55,18,21.09,18c10.55,0,10.55-18,21.09-18c10.55,0,10.55,18,21.09,18
			c10.55,0,10.55-18,21.09-18c10.55,0,10.55,18,21.1,18s10.55-18,21.1-18"/>
		<path class="st6" d="M8.09,12.45c10.55,0,10.55,18,21.09,18c10.55,0,10.55-18,21.09-18c10.55,0,10.55,18,21.09,18
			c10.55,0,10.55-18,21.09-18c10.55,0,10.55,18,21.1,18s10.55-18,21.1-18"/>
	</g>
	<g>
		<path class="st5" d="M8.09,44.23c10.55,0,10.55,18,21.09,18c10.55,0,10.55-18,21.09-18c10.55,0,10.55,18,21.09,18
			c10.55,0,10.55-18,21.09-18c10.55,0,10.55,18,21.1,18s10.55-18,21.1-18"/>
		<path class="st6" d="M8.09,44.23c10.55,0,10.55,18,21.09,18c10.55,0,10.55-18,21.09-18c10.55,0,10.55,18,21.09,18
			c10.55,0,10.55-18,21.09-18c10.55,0,10.55,18,21.1,18s10.55-18,21.1-18"/>
	</g>
	<g>
		<path class="st5" d="M9.09,76c10.55,0,10.55,18,21.09,18c10.55,0,10.55-18,21.09-18c10.55,0,10.55,18,21.09,18
			c10.55,0,10.55-18,21.09-18c10.55,0,10.55,18,21.1,18s10.55-18,21.1-18"/>
		<path class="st6" d="M9.09,76c10.55,0,10.55,18,21.09,18c10.55,0,10.55-18,21.09-18c10.55,0,10.55,18,21.09,18
			c10.55,0,10.55-18,21.09-18c10.55,0,10.55,18,21.1,18s10.55-18,21.1-18"/>
	</g>
</g>
</svg>
