<?xml version="1.0" encoding="utf-8"?>
<!-- Generator: Adobe Illustrator 23.1.0, SVG Export Plug-In . SVG Version: 6.00 Build 0)  -->
<svg version="1.1" xmlns="http://www.w3.org/2000/svg" xmlns:xlink="http://www.w3.org/1999/xlink" x="0px" y="0px"
	 viewBox="0 0 226.09 226.09" style="enable-background:new 0 0 226.09 226.09;" xml:space="preserve">
<style type="text/css">
	.st0{fill:#F75A42;stroke:#000000;stroke-width:6;stroke-miterlimit:10;}
	.st1{stroke:#000000;stroke-width:3;stroke-miterlimit:10;}
	.st2{fill:#F75A42;stroke:#010000;stroke-width:4;stroke-miterlimit:10;}
	.st3{fill:#F75A42;}
	.st4{fill:#010000;}
	.st5{fill:#319475;}
	.st6{fill:none;stroke:#000000;stroke-width:6;stroke-miterlimit:10;}
	.st7{fill:#F75A42;stroke:#000000;stroke-width:4;stroke-miterlimit:10;}
	.st8{fill:none;stroke:#000000;stroke-width:4;stroke-miterlimit:10;}
</style>
<g id="Layer_1">
</g>
<g id="Layer_2">
	<polygon class="st0" points="145.34,81.78 127.29,71.36 103.69,78.49 83.58,100.45 74.61,128.86 80.23,152.85 98.29,163.28 
		121.88,156.14 142,134.18 150.96,105.78 	"/>
	<polygon class="st1" points="131.99,96.8 121.42,90.7 107.61,94.88 95.83,107.73 90.58,124.36 93.87,138.41 104.44,144.51 
		118.25,140.34 130.03,127.48 135.28,110.85 	"/>
	<g>
		<g>
			<line class="st2" x1="74.36" y1="95.27" x2="150.87" y2="138.84"/>
			<g>
				<path class="st3" d="M177.31,162.02c-1.39,0-3.2-0.63-5.37-1.86c-8.99-5.12-19.83-17.77-19.56-20.68
					c0.2-0.12,1.1-0.45,3.13-0.45c6.21,0,16.97,3.02,23.01,6.46c3.42,1.95,5.28,4.01,5.53,6.13c0.22,1.85-0.73,3.7-1.64,5.29
					c-0.17,0.3-0.34,0.61-0.51,0.92C180.48,160.44,179.46,162.02,177.31,162.02z"/>
				<path class="st4" d="M155.52,137.02v4c5.93,0,16.22,2.9,22.02,6.2c1.95,1.11,4.32,2.81,4.53,4.62c0.14,1.19-0.59,2.66-1.39,4.07
					c-0.18,0.31-0.35,0.63-0.53,0.96c-1.4,2.56-1.93,3.14-2.84,3.14c-0.59,0-1.93-0.21-4.38-1.6c-6.89-3.92-15.44-13-17.88-17.39
					c0.14,0,0.3-0.01,0.46-0.01L155.52,137.02 M155.52,137.02c-2.5,0-4.31,0.45-4.9,1.49c-2.1,3.69,11.23,18.2,20.34,23.39
					c2.67,1.52,4.73,2.12,6.36,2.12c3.93,0,5.36-3.51,6.84-6.12c2.1-3.69,4.48-8.97-4.64-14.15
					C172.96,140.01,161.95,137.02,155.52,137.02L155.52,137.02z"/>
			</g>
			<g>
				<path class="st3" d="M69.37,94.68c-6.21,0-16.97-3.02-23.01-6.46c-7.85-4.47-5.65-8.33-3.89-11.42c0.17-0.3,0.34-0.61,0.51-0.92
					c1.42-2.6,2.44-4.19,4.59-4.19c1.39,0,3.2,0.63,5.37,1.86c8.99,5.12,19.83,17.77,19.56,20.68C72.3,94.34,71.4,94.68,69.37,94.68
					z"/>
				<path class="st4" d="M47.58,73.68c0.59,0,1.93,0.21,4.38,1.6c6.89,3.92,15.44,13,17.88,17.39c-0.14,0-0.3,0.01-0.46,0.01
					c-5.93,0-16.22-2.9-22.02-6.2c-6.11-3.48-4.86-5.67-3.14-8.7c0.18-0.31,0.35-0.63,0.53-0.96
					C46.14,74.27,46.67,73.68,47.58,73.68 M47.58,69.68c-3.93,0-5.36,3.51-6.84,6.12c-2.1,3.69-4.48,8.97,4.64,14.15
					c6.56,3.74,17.57,6.72,24,6.72c2.5,0,4.31-0.45,4.9-1.49c2.1-3.69-11.23-18.2-20.34-23.39C51.26,70.28,49.21,69.68,47.58,69.68
					L47.58,69.68z"/>
			</g>
		</g>
	</g>
</g>
</svg>
