<?xml version="1.0" encoding="utf-8"?>
<!-- Generator: Adobe Illustrator 23.1.0, SVG Export Plug-In . SVG Version: 6.00 Build 0)  -->
<svg version="1.1" xmlns="http://www.w3.org/2000/svg" xmlns:xlink="http://www.w3.org/1999/xlink" x="0px" y="0px"
	 viewBox="0 0 156 122" style="enable-background:new 0 0 156 122;" xml:space="preserve">
<style type="text/css">
	.st0{fill:#F75A42;stroke:#000000;stroke-width:6;stroke-miterlimit:10;}
	.st1{stroke:#000000;stroke-width:3;stroke-miterlimit:10;}
	.st2{fill:#F75A42;stroke:#010000;stroke-width:4;stroke-miterlimit:10;}
	.st3{fill:#F75A42;}
	.st4{fill:#010000;}
	.st5{fill:#319475;}
	.st6{fill:none;stroke:#000000;stroke-width:6;stroke-miterlimit:10;}
</style>
<g id="Layer_1">
</g>
<g id="Layer_2">
	<polygon class="st0" points="109.25,23.3 91.2,12.87 67.61,20.01 47.49,41.97 38.53,70.37 44.15,94.37 62.2,104.79 85.79,97.66 
		105.91,75.7 114.87,47.29 	"/>
	<polygon class="st1" points="95.9,38.32 85.33,32.22 71.52,36.39 59.74,49.25 54.5,65.88 57.79,79.93 68.36,86.03 82.17,81.85 
		93.94,69 99.19,52.37 	"/>
	<g>
		<g>
			<line class="st2" x1="38.27" y1="36.79" x2="114.78" y2="80.35"/>
			<g>
				<path class="st3" d="M141.23,103.54c-1.39,0-3.2-0.63-5.37-1.86c-8.99-5.12-19.83-17.77-19.56-20.68
					c0.2-0.12,1.1-0.45,3.13-0.45c6.21,0,16.97,3.02,23.01,6.46c3.42,1.95,5.28,4.01,5.53,6.13c0.22,1.85-0.73,3.7-1.64,5.29
					c-0.17,0.3-0.34,0.61-0.51,0.92C144.4,101.96,143.38,103.54,141.23,103.54z"/>
				<path class="st4" d="M119.43,78.54v4c5.93,0,16.22,2.9,22.02,6.2c1.95,1.11,4.32,2.81,4.53,4.62c0.14,1.19-0.59,2.66-1.39,4.07
					c-0.18,0.31-0.35,0.63-0.53,0.96c-1.4,2.56-1.93,3.14-2.84,3.14c-0.59,0-1.93-0.21-4.38-1.6c-6.89-3.92-15.44-13-17.88-17.39
					c0.14,0,0.3-0.01,0.46-0.01L119.43,78.54 M119.43,78.54c-2.5,0-4.31,0.45-4.9,1.49c-2.1,3.69,11.23,18.2,20.34,23.39
					c2.67,1.52,4.73,2.12,6.36,2.12c3.93,0,5.36-3.51,6.84-6.12c2.1-3.69,4.48-8.97-4.64-14.15
					C136.87,81.53,125.86,78.54,119.43,78.54L119.43,78.54z"/>
			</g>
			<g>
				<path class="st3" d="M33.29,36.19c-6.21,0-16.97-3.02-23.01-6.46c-7.85-4.47-5.65-8.33-3.89-11.42c0.17-0.3,0.34-0.61,0.51-0.92
					c1.42-2.6,2.44-4.19,4.59-4.19c1.39,0,3.2,0.63,5.37,1.86c8.99,5.12,19.83,17.77,19.56,20.68
					C36.21,35.86,35.31,36.19,33.29,36.19z"/>
				<path class="st4" d="M11.49,15.2c0.59,0,1.93,0.21,4.38,1.6c6.89,3.92,15.44,13,17.88,17.39c-0.14,0-0.3,0.01-0.46,0.01
					c-5.93,0-16.22-2.9-22.02-6.2c-6.11-3.48-4.86-5.67-3.14-8.7c0.18-0.31,0.35-0.63,0.53-0.96C10.05,15.79,10.58,15.2,11.49,15.2
					 M11.49,11.2c-3.93,0-5.36,3.51-6.84,6.12c-2.1,3.69-4.48,8.97,4.64,14.15c6.56,3.74,17.57,6.72,24,6.72
					c2.5,0,4.31-0.45,4.9-1.49c2.1-3.69-11.23-18.2-20.34-23.39C15.18,11.8,13.12,11.2,11.49,11.2L11.49,11.2z"/>
			</g>
		</g>
	</g>
</g>
</svg>
