<?xml version="1.0" encoding="utf-8"?>
<!-- Generator: Adobe Illustrator 23.1.0, SVG Export Plug-In . SVG Version: 6.00 Build 0)  -->
<svg version="1.1" id="Layer_1" xmlns="http://www.w3.org/2000/svg" xmlns:xlink="http://www.w3.org/1999/xlink" x="0px" y="0px"
	 viewBox="0 0 455 365" style="enable-background:new 0 0 455 365;" xml:space="preserve">
<style type="text/css">
	.st0{display:none;}
	.st1{fill:#FFFFFF;}
	.st2{fill:none;stroke:#FFFFFF;stroke-width:7;stroke-miterlimit:10;}
</style>
<rect x="-78" y="-77" class="st0" width="580" height="472"/>
<g>
	<path class="st1" d="M197.51,194.52l-28.88-56.66L139.74,81.2l54.78,2.86c13.35-15.39,33.38-30.99,57.61-43.69
		c52.59-27.56,105.09-31.06,117.27-7.82c12.17,23.23-20.58,64.41-73.17,91.97c-23.88,12.51-47.76,20.07-67.84,22.42L197.51,194.52z"
		/>
</g>
<g>
	<path class="st2" d="M5.33,191c27.75,0,27.75,54,55.5,54c27.75,0,27.75-54,55.5-54c27.75,0,27.75,54,55.5,54
		c27.75,0,27.75-54,55.5-54c27.75,0,27.75,54,55.5,54c27.75,0,27.75-54,55.5-54c27.75,0,27.75,54,55.51,54
		c27.75,0,27.75-54,55.51-54"/>
</g>
<g>
	<path class="st2" d="M5.33,244.25c27.75,0,27.75,54,55.5,54c27.75,0,27.75-54,55.5-54c27.75,0,27.75,54,55.5,54
		c27.75,0,27.75-54,55.5-54c27.75,0,27.75,54,55.5,54c27.75,0,27.75-54,55.5-54c27.75,0,27.75,54,55.51,54
		c27.75,0,27.75-54,55.51-54"/>
</g>
<g>
	<path class="st2" d="M5.33,297.5c27.75,0,27.75,54,55.5,54c27.75,0,27.75-54,55.5-54c27.75,0,27.75,54,55.5,54
		c27.75,0,27.75-54,55.5-54c27.75,0,27.75,54,55.5,54c27.75,0,27.75-54,55.5-54c27.75,0,27.75,54,55.51,54
		c27.75,0,27.75-54,55.51-54"/>
</g>
</svg>
